# xmcd
#
# Track frame offsets:
#	150
#	12675
#	28881
#	47071
#	56434
#	72049
#	78378
#	83706
#	89027
#	96818
#	106358
#	120139
#	139778
#	154772
#	160590
#	164846
#	170020
#	173807
#	184413
#	196688
#	209603
#	227029
#	238663
#	262263
#
# Disc length: 3664 seconds
#
# Revision: 1
# Processed by: cddbd v1.5.1PL2 Copyright (c) Steve Scherf et al.
# Submitted via: audiograbber 1.83.01
#
DISCID=4f0e4e18
DTITLE=Ann Breen - An Evening With
DYEAR=1900
DGENRE=Country
TTITLE0=Golden Jubilee
TTITLE1=If Those Lips Could Only Speak
TTITLE2=Sweet Sixteen
TTITLE3=Blackboard Of My Heart
TTITLE4=One Day At A Time
TTITLE5=Jealous Heart
TTITLE6=Be Nobody's Darling But Mine
TTITLE7=Send Me The Pillow That You Dream On
TTITLE8=Please Help Me I'm Falling
TTITLE9=I Don't Know Why I Love You But I Do
TTITLE10=Stand By Your Man
TTITLE11=Love Is
TTITLE12=River Shannon
TTITLE13=If You're Irish Come Into The Parlor
TTITLE14=Bouuld O'donoghue
TTITLE15=Galway Shawl
TTITLE16=Old Bog Road
TTITLE17=When Irish Eyes Are Smiling
TTITLE18=Old Maid In The Garrot One Day
TTITLE19=Maggie
TTITLE20=Mountains Of Mourne
TTITLE21=Old Dungarvan Oak
TTITLE22=How Great Thou Art
TTITLE23=May Each Day Of Your Life
EXTD=
EXTT0=
EXTT1=
EXTT2=
EXTT3=
EXTT4=
EXTT5=
EXTT6=
EXTT7=
EXTT8=
EXTT9=
EXTT10=
EXTT11=
EXTT12=
EXTT13=
EXTT14=
EXTT15=
EXTT16=
EXTT17=
EXTT18=
EXTT19=
EXTT20=
EXTT21=
EXTT22=
EXTT23=
PLAYORDER=
